<svg width="2939" height="828" viewBox="0 0 2939 828" fill="none" xmlns="http://www.w3.org/2000/svg">
<path d="M600 735.345V135.345L116.129 633.732V251.474H198.387V425.668L493.548 135.345H0V735.345H600Z" fill="#FD5A00"/>
<path d="M300 524.911C320.968 495.878 373.548 448.459 416.129 491.04C427.742 502.653 504.839 589.427 541.935 631.362C498.387 637.814 405.484 644.911 382.258 621.685C359.032 598.459 317.742 547.491 300 524.911Z" fill="white"/>
<path d="M716.8 660V219H782.8V415.8L934 219H1014.4L862.6 412.8L1036 660H953.8L818.8 462.6L782.8 507V660H716.8ZM1174.83 666C1150.43 666 1127.63 660.2 1106.43 648.6C1085.63 637 1068.83 620.4 1056.03 598.8C1043.23 577.2 1036.83 551.4 1036.83 521.4C1036.83 492.6 1042.23 467.4 1053.03 445.8C1064.23 424.2 1079.83 407.4 1099.83 395.4C1120.23 383.4 1144.43 377.4 1172.43 377.4C1189.23 377.4 1204.43 380.4 1218.03 386.4C1232.03 392 1243.63 399 1252.83 407.4C1262.43 415.4 1268.83 423.2 1272.03 430.8L1273.23 384.6H1335.03V660H1273.83L1272.63 611.4C1268.63 620.2 1261.83 628.8 1252.23 637.2C1243.03 645.6 1231.83 652.6 1218.63 658.2C1205.43 663.4 1190.83 666 1174.83 666ZM1185.63 612C1200.43 612 1213.83 608.6 1225.83 601.8C1238.23 594.6 1248.03 584.6 1255.23 571.8C1262.83 559 1266.63 543.8 1266.63 526.2V522C1266.63 504 1262.83 488.4 1255.23 475.2C1248.03 461.6 1238.23 451.2 1225.83 444C1213.83 436.4 1200.43 432.6 1185.63 432.6C1158.83 432.6 1138.63 441.2 1125.03 458.4C1111.83 475.6 1105.23 496.8 1105.23 522C1105.23 547.6 1111.83 569 1125.03 586.2C1138.63 603.4 1158.83 612 1185.63 612ZM1412.21 660V384.6H1475.81L1476.41 435C1483.61 418.6 1495.21 405 1511.21 394.2C1527.61 383 1547.21 377.4 1570.01 377.4C1599.61 377.4 1621.81 383.6 1636.61 396C1651.41 408 1661.21 425.2 1666.01 447.6C1671.21 470 1673.81 496.6 1673.81 527.4V660H1609.01V529.2C1609.01 497.2 1605.81 472.8 1599.41 456C1593.41 439.2 1579.21 430.8 1556.81 430.8C1545.21 430.8 1533.21 434.4 1520.81 441.6C1508.41 448.8 1498.01 459.2 1489.61 472.8C1481.21 486.4 1477.01 503.2 1477.01 523.2V660H1412.21ZM1873.27 666C1848.87 666 1826.07 660.2 1804.87 648.6C1784.07 637 1767.27 620.4 1754.47 598.8C1741.67 577.2 1735.27 551.4 1735.27 521.4C1735.27 492.2 1740.67 467 1751.47 445.8C1762.67 424.2 1778.27 407.4 1798.27 395.4C1818.67 383.4 1842.87 377.4 1870.87 377.4C1886.87 377.4 1901.87 380.2 1915.87 385.8C1929.87 391 1941.87 398 1951.87 406.8C1961.87 415.6 1969.07 425.2 1973.47 435.6L1970.47 388.8V219H2034.07V660H1972.27L1971.07 611.4C1967.07 620.2 1960.27 628.8 1950.67 637.2C1941.47 645.6 1930.27 652.6 1917.07 658.2C1903.87 663.4 1889.27 666 1873.27 666ZM1884.07 611.4C1898.87 611.4 1912.27 608 1924.27 601.2C1936.67 594 1946.47 584 1953.67 571.2C1961.27 558.4 1965.07 543.2 1965.07 525.6V521.4C1965.07 503.4 1961.27 487.8 1953.67 474.6C1946.47 461 1936.67 450.6 1924.27 443.4C1912.27 435.8 1898.87 432 1884.07 432C1857.27 432 1837.07 440.6 1823.47 457.8C1810.27 475 1803.67 496.2 1803.67 521.4C1803.67 547 1810.27 568.4 1823.47 585.6C1837.07 602.8 1857.27 611.4 1884.07 611.4ZM2236.55 666C2212.15 666 2189.35 660.2 2168.15 648.6C2147.35 637 2130.55 620.4 2117.75 598.8C2104.95 577.2 2098.55 551.4 2098.55 521.4C2098.55 492.6 2103.95 467.4 2114.75 445.8C2125.95 424.2 2141.55 407.4 2161.55 395.4C2181.95 383.4 2206.15 377.4 2234.15 377.4C2250.95 377.4 2266.15 380.4 2279.75 386.4C2293.75 392 2305.35 399 2314.55 407.4C2324.15 415.4 2330.55 423.2 2333.75 430.8L2334.95 384.6H2396.75V660H2335.55L2334.35 611.4C2330.35 620.2 2323.55 628.8 2313.95 637.2C2304.75 645.6 2293.55 652.6 2280.35 658.2C2267.15 663.4 2252.55 666 2236.55 666ZM2247.35 612C2262.15 612 2275.55 608.6 2287.55 601.8C2299.95 594.6 2309.75 584.6 2316.95 571.8C2324.55 559 2328.35 543.8 2328.35 526.2V522C2328.35 504 2324.55 488.4 2316.95 475.2C2309.75 461.6 2299.95 451.2 2287.55 444C2275.55 436.4 2262.15 432.6 2247.35 432.6C2220.55 432.6 2200.35 441.2 2186.75 458.4C2173.55 475.6 2166.95 496.8 2166.95 522C2166.95 547.6 2173.55 569 2186.75 586.2C2200.35 603.4 2220.55 612 2247.35 612ZM2496.49 666C2484.49 666 2474.29 662 2465.89 654C2457.49 645.6 2453.29 635.4 2453.29 623.4C2453.29 611 2457.29 600.8 2465.29 592.8C2473.69 584.4 2484.09 580.2 2496.49 580.2C2509.29 580.2 2519.69 584.4 2527.69 592.8C2535.69 600.8 2539.69 611 2539.69 623.4C2539.69 635.4 2535.49 645.6 2527.09 654C2519.09 662 2508.89 666 2496.49 666ZM2595.92 660V384.6H2663.12V660H2595.92ZM2629.52 333C2617.12 333 2606.72 328.8 2598.32 320.4C2590.32 312 2586.32 301.6 2586.32 289.2C2586.32 278 2590.32 268.4 2598.32 260.4C2606.72 252.4 2617.12 248.4 2629.52 248.4C2641.92 248.4 2652.12 252.4 2660.12 260.4C2668.52 268.4 2672.72 278 2672.72 289.2C2672.72 301.6 2668.52 312 2660.12 320.4C2652.12 328.8 2641.92 333 2629.52 333ZM2769.22 660V437.4H2720.62V384.6H2769.22V272.4L2834.62 258V384.6H2898.22V437.4H2834.62V660H2769.22Z" fill="#1E1E1E"/>
</svg>
