<svg width="140" height="140" viewBox="0 0 140 140" fill="none" xmlns="http://www.w3.org/2000/svg">
<circle cx="70" cy="70" r="70" fill="#F2F2F2"/>
<path d="M66.9966 75.4944L53.811 70.5606C52.4919 70.067 51.8323 69.8202 51.7178 69.2845C51.6034 68.7489 52.1044 68.2541 53.1065 67.2644L79.2546 41.4407C79.8883 40.8148 80.2052 40.5019 80.3738 40.6112C80.5425 40.7204 80.3864 41.1375 80.0743 41.9717L72.1084 63.26C72.0258 63.4808 71.9845 63.5911 72.0274 63.6854C72.0704 63.7796 72.1807 63.8209 72.4015 63.9035L85.5871 68.8374C86.9062 69.331 87.5658 69.5778 87.6802 70.1134C87.7947 70.6491 87.2936 71.1439 86.2915 72.1336L60.1434 97.9573C59.5097 98.5831 59.1929 98.896 59.0242 98.7868C58.8556 98.6775 59.0117 98.2605 59.3238 97.4263L67.2896 76.138C67.3722 75.9172 67.4136 75.8068 67.3706 75.7126C67.3277 75.6183 67.2173 75.577 66.9966 75.4944Z" fill="#FD5A00"/>
</svg>
